<mxfile host="Electron" modified="2023-07-13T07:27:11.189Z" agent="Mozilla/5.0 (X11; Linux x86_64) AppleWebKit/537.36 (KHTML, like Gecko) draw.io/21.6.1 Chrome/112.0.5615.204 Electron/24.6.1 Safari/537.36" etag="6Rwo5MZchqlUTg7ntu0-" version="21.6.1" type="device">
  <diagram name="第 1 页" id="qh5nWpfkVu7vhYwui-S6">
    <mxGraphModel dx="1532" dy="1138" grid="1" gridSize="10" guides="1" tooltips="1" connect="1" arrows="1" fold="1" page="0" pageScale="1" pageWidth="827" pageHeight="1169" math="0" shadow="0">
      <root>
        <mxCell id="0" />
        <mxCell id="1" parent="0" />
        <mxCell id="-8ePlCVvf25KJlLVlEpf-26" value="" style="group;fontSize=16;" vertex="1" connectable="0" parent="1">
          <mxGeometry x="-200" y="230" width="540" height="300" as="geometry" />
        </mxCell>
        <mxCell id="-8ePlCVvf25KJlLVlEpf-27" value="" style="rounded=0;whiteSpace=wrap;html=1;fontSize=16;align=center;dashed=1;fillColor=none;" vertex="1" parent="-8ePlCVvf25KJlLVlEpf-26">
          <mxGeometry width="540" height="300" as="geometry" />
        </mxCell>
        <mxCell id="-8ePlCVvf25KJlLVlEpf-28" value="滑面内质网" style="whiteSpace=wrap;html=1;fontSize=16;dashed=1;fillColor=none;horizontal=0;" vertex="1" parent="-8ePlCVvf25KJlLVlEpf-26">
          <mxGeometry x="489.0566037735849" width="50.943396226415096" height="110" as="geometry" />
        </mxCell>
        <mxCell id="-8ePlCVvf25KJlLVlEpf-23" value="" style="group;fontSize=16;" vertex="1" connectable="0" parent="1">
          <mxGeometry x="-220" y="50" width="580" height="500" as="geometry" />
        </mxCell>
        <mxCell id="-8ePlCVvf25KJlLVlEpf-24" value="" style="rounded=0;whiteSpace=wrap;html=1;fontSize=16;align=center;dashed=1;fillColor=none;" vertex="1" parent="-8ePlCVvf25KJlLVlEpf-23">
          <mxGeometry width="580" height="500" as="geometry" />
        </mxCell>
        <mxCell id="-8ePlCVvf25KJlLVlEpf-25" value="肝细胞" style="whiteSpace=wrap;html=1;fontSize=16;dashed=1;fillColor=none;horizontal=0;" vertex="1" parent="-8ePlCVvf25KJlLVlEpf-23">
          <mxGeometry x="537.0370370370371" width="42.96296296296296" height="87.49999999999999" as="geometry" />
        </mxCell>
        <mxCell id="-8ePlCVvf25KJlLVlEpf-6" value="" style="edgeStyle=none;curved=1;rounded=0;orthogonalLoop=1;jettySize=auto;html=1;fontSize=12;startSize=8;endSize=8;" edge="1" parent="1" source="-8ePlCVvf25KJlLVlEpf-4" target="-8ePlCVvf25KJlLVlEpf-5">
          <mxGeometry relative="1" as="geometry" />
        </mxCell>
        <mxCell id="-8ePlCVvf25KJlLVlEpf-7" value="分离" style="edgeLabel;html=1;align=center;verticalAlign=middle;resizable=0;points=[];fontSize=16;" vertex="1" connectable="0" parent="-8ePlCVvf25KJlLVlEpf-6">
          <mxGeometry x="-0.1732" y="-2" relative="1" as="geometry">
            <mxPoint as="offset" />
          </mxGeometry>
        </mxCell>
        <mxCell id="-8ePlCVvf25KJlLVlEpf-4" value="胆红素-清蛋白复合体" style="text;html=1;align=center;verticalAlign=middle;resizable=0;points=[];autosize=1;strokeColor=none;fillColor=none;fontSize=16;" vertex="1" parent="1">
          <mxGeometry x="-40" y="-10" width="170" height="30" as="geometry" />
        </mxCell>
        <mxCell id="-8ePlCVvf25KJlLVlEpf-9" value="" style="edgeStyle=none;curved=1;rounded=0;orthogonalLoop=1;jettySize=auto;html=1;fontSize=12;startSize=8;endSize=8;" edge="1" parent="1" source="-8ePlCVvf25KJlLVlEpf-5" target="-8ePlCVvf25KJlLVlEpf-8">
          <mxGeometry relative="1" as="geometry" />
        </mxCell>
        <mxCell id="-8ePlCVvf25KJlLVlEpf-5" value="胆红素" style="text;html=1;align=center;verticalAlign=middle;resizable=0;points=[];autosize=1;strokeColor=none;fillColor=none;fontSize=16;" vertex="1" parent="1">
          <mxGeometry x="10" y="92" width="70" height="30" as="geometry" />
        </mxCell>
        <mxCell id="-8ePlCVvf25KJlLVlEpf-12" value="" style="edgeStyle=none;curved=1;rounded=0;orthogonalLoop=1;jettySize=auto;html=1;fontSize=12;startSize=8;endSize=8;" edge="1" parent="1" source="-8ePlCVvf25KJlLVlEpf-16" target="-8ePlCVvf25KJlLVlEpf-11">
          <mxGeometry relative="1" as="geometry">
            <mxPoint x="45" y="280" as="sourcePoint" />
          </mxGeometry>
        </mxCell>
        <mxCell id="-8ePlCVvf25KJlLVlEpf-17" style="edgeStyle=none;curved=1;rounded=0;orthogonalLoop=1;jettySize=auto;html=1;fontSize=12;startSize=8;endSize=8;" edge="1" parent="1" source="-8ePlCVvf25KJlLVlEpf-8" target="-8ePlCVvf25KJlLVlEpf-16">
          <mxGeometry relative="1" as="geometry" />
        </mxCell>
        <mxCell id="-8ePlCVvf25KJlLVlEpf-8" value="胆红素-Y 蛋白、胆红素-Z 蛋白" style="text;html=1;align=center;verticalAlign=middle;resizable=0;points=[];autosize=1;strokeColor=none;fillColor=none;fontSize=16;" vertex="1" parent="1">
          <mxGeometry x="-75" y="180" width="240" height="30" as="geometry" />
        </mxCell>
        <mxCell id="-8ePlCVvf25KJlLVlEpf-10" value="配体蛋白（主要是 Y 蛋白）" style="text;html=1;align=center;verticalAlign=middle;resizable=0;points=[];autosize=1;strokeColor=none;fillColor=none;fontSize=16;" vertex="1" parent="1">
          <mxGeometry x="60" y="130" width="220" height="30" as="geometry" />
        </mxCell>
        <mxCell id="-8ePlCVvf25KJlLVlEpf-30" style="edgeStyle=orthogonalEdgeStyle;rounded=0;orthogonalLoop=1;jettySize=auto;html=1;fontSize=12;startSize=8;endSize=8;" edge="1" parent="1" source="-8ePlCVvf25KJlLVlEpf-11" target="-8ePlCVvf25KJlLVlEpf-32">
          <mxGeometry relative="1" as="geometry">
            <mxPoint x="460" y="385" as="targetPoint" />
          </mxGeometry>
        </mxCell>
        <mxCell id="-8ePlCVvf25KJlLVlEpf-11" value="胆红素葡萄糖醛酸一酯" style="text;html=1;align=center;verticalAlign=middle;resizable=0;points=[];autosize=1;strokeColor=none;fillColor=none;fontSize=16;" vertex="1" parent="1">
          <mxGeometry x="-45" y="370" width="180" height="30" as="geometry" />
        </mxCell>
        <mxCell id="-8ePlCVvf25KJlLVlEpf-13" value="UGT&lt;br&gt;UDP-葡萄糖醛酸基转移酶" style="text;html=1;align=center;verticalAlign=middle;resizable=0;points=[];autosize=1;strokeColor=#d79b00;fillColor=#ffe6cc;fontSize=16;rounded=1;" vertex="1" parent="1">
          <mxGeometry x="-180" y="300" width="210" height="50" as="geometry" />
        </mxCell>
        <mxCell id="-8ePlCVvf25KJlLVlEpf-15" style="edgeStyle=none;curved=1;rounded=0;orthogonalLoop=1;jettySize=auto;html=1;fontSize=12;startSize=8;endSize=8;" edge="1" parent="1" source="-8ePlCVvf25KJlLVlEpf-14" target="-8ePlCVvf25KJlLVlEpf-11">
          <mxGeometry relative="1" as="geometry">
            <Array as="points">
              <mxPoint x="45" y="310" />
            </Array>
          </mxGeometry>
        </mxCell>
        <mxCell id="-8ePlCVvf25KJlLVlEpf-14" value="UDPGA（UDP-葡萄糖醛酸）" style="text;html=1;align=center;verticalAlign=middle;resizable=0;points=[];autosize=1;strokeColor=none;fillColor=none;fontSize=16;" vertex="1" parent="1">
          <mxGeometry x="70" y="290" width="230" height="30" as="geometry" />
        </mxCell>
        <mxCell id="-8ePlCVvf25KJlLVlEpf-16" value="胆红素" style="text;html=1;align=center;verticalAlign=middle;resizable=0;points=[];autosize=1;strokeColor=none;fillColor=none;fontSize=16;" vertex="1" parent="1">
          <mxGeometry x="10" y="250" width="70" height="30" as="geometry" />
        </mxCell>
        <mxCell id="-8ePlCVvf25KJlLVlEpf-18" value="" style="edgeStyle=none;curved=1;rounded=0;orthogonalLoop=1;jettySize=auto;html=1;fontSize=12;startSize=8;endSize=8;" edge="1" parent="1" target="-8ePlCVvf25KJlLVlEpf-19" source="-8ePlCVvf25KJlLVlEpf-11">
          <mxGeometry relative="1" as="geometry">
            <mxPoint x="45" y="400" as="sourcePoint" />
          </mxGeometry>
        </mxCell>
        <mxCell id="-8ePlCVvf25KJlLVlEpf-31" style="edgeStyle=orthogonalEdgeStyle;rounded=0;orthogonalLoop=1;jettySize=auto;html=1;fontSize=12;startSize=8;endSize=8;" edge="1" parent="1" source="-8ePlCVvf25KJlLVlEpf-19" target="-8ePlCVvf25KJlLVlEpf-32">
          <mxGeometry relative="1" as="geometry">
            <mxPoint x="460" y="505" as="targetPoint" />
          </mxGeometry>
        </mxCell>
        <mxCell id="-8ePlCVvf25KJlLVlEpf-19" value="胆红素葡萄糖醛酸二酯" style="text;html=1;align=center;verticalAlign=middle;resizable=0;points=[];autosize=1;strokeColor=none;fillColor=none;fontSize=16;" vertex="1" parent="1">
          <mxGeometry x="-45" y="490" width="180" height="30" as="geometry" />
        </mxCell>
        <mxCell id="-8ePlCVvf25KJlLVlEpf-20" value="UGT&lt;br&gt;UDP-葡萄糖醛酸基转移酶" style="text;html=1;align=center;verticalAlign=middle;resizable=0;points=[];autosize=1;strokeColor=#d79b00;fillColor=#ffe6cc;fontSize=16;rounded=1;" vertex="1" parent="1">
          <mxGeometry x="-180" y="420" width="210" height="50" as="geometry" />
        </mxCell>
        <mxCell id="-8ePlCVvf25KJlLVlEpf-21" style="edgeStyle=none;curved=1;rounded=0;orthogonalLoop=1;jettySize=auto;html=1;fontSize=12;startSize=8;endSize=8;" edge="1" parent="1" source="-8ePlCVvf25KJlLVlEpf-22" target="-8ePlCVvf25KJlLVlEpf-19">
          <mxGeometry relative="1" as="geometry">
            <Array as="points">
              <mxPoint x="45" y="430" />
            </Array>
          </mxGeometry>
        </mxCell>
        <mxCell id="-8ePlCVvf25KJlLVlEpf-22" value="UDPGA（UDP-葡萄糖醛酸）" style="text;html=1;align=center;verticalAlign=middle;resizable=0;points=[];autosize=1;strokeColor=none;fillColor=none;fontSize=16;" vertex="1" parent="1">
          <mxGeometry x="70" y="410" width="230" height="30" as="geometry" />
        </mxCell>
        <mxCell id="-8ePlCVvf25KJlLVlEpf-32" value="胆管系统" style="text;html=1;align=center;verticalAlign=middle;resizable=0;points=[];autosize=1;strokeColor=#b85450;fillColor=#f8cecc;fontSize=16;" vertex="1" parent="1">
          <mxGeometry x="430" y="430" width="90" height="30" as="geometry" />
        </mxCell>
      </root>
    </mxGraphModel>
  </diagram>
</mxfile>
